# ProBuilder 4.2.1
# https://unity3d.com/unity/features/worldbuilding/probuilder
# 2019/12/7 23:14:41

mtllib ./Stairs_01.mtl
o Stairs_01

g Stairs
v 0 0 0
v 2 0 0
v 0 0.4166667 0
v 2 0.4166667 0
v 0 0.4166667 0.6666667
v 2 0.4166667 0.6666667
v 0 0.8333334 0.6666667
v 2 0.8333334 0.6666667
v 0 0.8333334 1.333333
v 2 0.8333334 1.333333
v 0 1.25 1.333333
v 2 1.25 1.333333
v 0 1.25 2
v 2 1.25 2
v 0 1.666667 2
v 2 1.666667 2
v 0 1.666667 2.666667
v 2 1.666667 2.666667
v 0 2.083333 2.666667
v 2 2.083333 2.666667
v 0 2.083333 3.333333
v 2 2.083333 3.333333
v 0 2.5 3.333333
v 2 2.5 3.333333
v 0 2.5 4
v 2 2.5 4
v 2 0 0.6666667
v 2 0 1.333333
v 2 0 2
v 2 0 2.666667
v 2 0 3.333333
v 2 0 4
v 0 0 0.6666667
v 0 0 1.333333
v 0 0 2
v 0 0 2.666667
v 0 0 3.333333
v 0 0 4

vt 0 0
vt -2 0
vt 0 0.4166667
vt -2 0.4166667
vt 0 0.6666667
vt -2 0.6666667
vt 0 0.8333334
vt -2 0.8333334
vt 0 1.333333
vt -2 1.333333
vt 0 1.25
vt -2 1.25
vt 0 2
vt -2 2
vt 0 1.666667
vt -2 1.666667
vt 0 2.666667
vt -2 2.666667
vt 0 2.083333
vt -2 2.083333
vt 0 3.333333
vt -2 3.333333
vt 0 2.5
vt -2 2.5
vt 0 4
vt -2 4
vt -0.6666667 0
vt -0.6666667 0.4166667
vt -1.333333 0
vt -1.333333 0.8333333
vt -0.6666667 0.8333333
vt -1.333333 1.25
vt -2.666667 0
vt -2.666667 1.666667
vt -3.333333 0
vt -3.333333 2.083333
vt -2.666667 2.083333
vt -4 0
vt -4 2.5
vt -3.333333 2.5
vt 0.6666667 0
vt 0.6666667 0.4166667
vt 1.333333 0
vt 1.333333 0.8333333
vt 0.6666667 0.8333333
vt 2 0
vt 2 1.25
vt 1.333333 1.25
vt 2.666667 0
vt 2.666667 1.666667
vt 2 1.666667
vt 3.333333 0
vt 3.333333 2.083333
vt 2.666667 2.083333
vt 4 0
vt 4 2.5
vt 3.333333 2.5
vt 2 2.5

vn 0 0 -1
vn 0 1 0
vn 1 0 0
vn -1 0 0
vn 0 0 1

usemtl ProBuilderDefault
f 6/28/3 8/31/3 10/30/3
f 10/30/3 12/32/3 14/12/3
f 14/12/3 16/16/3 18/34/3
f 18/34/3 20/37/3 22/36/3
f 22/36/3 24/40/3 26/39/3
f 9/44/4 7/45/4 5/42/4
f 13/47/4 11/48/4 9/44/4
f 17/50/4 15/51/4 13/47/4
f 21/53/4 19/54/4 17/50/4
f 25/56/4 23/57/4 21/53/4
f 4/4/1 2/2/1 1/1/1
f 1/1/1 3/3/1 4/4/1
f 6/6/2 4/2/2 3/1/2
f 3/1/2 5/5/2 6/6/2
f 8/8/1 6/4/1 5/3/1
f 5/3/1 7/7/1 8/8/1
f 10/10/2 8/6/2 7/5/2
f 7/5/2 9/9/2 10/10/2
f 12/12/1 10/8/1 9/7/1
f 9/7/1 11/11/1 12/12/1
f 14/14/2 12/10/2 11/9/2
f 11/9/2 13/13/2 14/14/2
f 16/16/1 14/12/1 13/11/1
f 13/11/1 15/15/1 16/16/1
f 18/18/2 16/14/2 15/13/2
f 15/13/2 17/17/2 18/18/2
f 20/20/1 18/16/1 17/15/1
f 17/15/1 19/19/1 20/20/1
f 22/22/2 20/18/2 19/17/2
f 19/17/2 21/21/2 22/22/2
f 24/24/1 22/20/1 21/19/1
f 21/19/1 23/23/1 24/24/1
f 26/26/2 24/22/2 23/21/2
f 23/21/2 25/25/2 26/26/2
f 6/28/3 27/27/3 2/1/3
f 2/1/3 4/3/3 6/28/3
f 10/30/3 28/29/3 27/27/3
f 27/27/3 6/28/3 10/30/3
f 14/12/3 29/2/3 28/29/3
f 28/29/3 10/30/3 14/12/3
f 18/34/3 30/33/3 29/2/3
f 29/2/3 14/12/3 18/34/3
f 22/36/3 31/35/3 30/33/3
f 30/33/3 18/34/3 22/36/3
f 26/39/3 32/38/3 31/35/3
f 31/35/3 22/36/3 26/39/3
f 3/3/4 1/1/4 33/41/4
f 33/41/4 5/42/4 3/3/4
f 5/42/4 33/41/4 34/43/4
f 34/43/4 9/44/4 5/42/4
f 9/44/4 34/43/4 35/46/4
f 35/46/4 13/47/4 9/44/4
f 13/47/4 35/46/4 36/49/4
f 36/49/4 17/50/4 13/47/4
f 17/50/4 36/49/4 37/52/4
f 37/52/4 21/53/4 17/50/4
f 21/53/4 37/52/4 38/55/4
f 38/55/4 25/56/4 21/53/4
f 25/23/5 38/1/5 32/46/5
f 32/46/5 26/58/5 25/23/5

