# ProBuilder 4.2.1
# https://unity3d.com/unity/features/worldbuilding/probuilder
# 2019/12/7 23:18:53

mtllib ./Stairs_02.mtl
o Stairs_02

g Stairs_02
v 0 0 0
v 2 0 0
v 0 0.2083333 0
v 2 0.2083333 0
v 0 0.2083333 0.3333333
v 2 0.2083333 0.3333333
v 0 0.4166667 0.3333333
v 2 0.4166667 0.3333333
v 0 0.4166667 0.6666667
v 2 0.4166667 0.6666667
v 0 0.625 0.6666667
v 2 0.625 0.6666667
v 0 0.625 1
v 2 0.625 1
v 0 0.8333334 1
v 2 0.8333334 1
v 0 0.8333334 1.333333
v 2 0.8333334 1.333333
v 0 1.041667 1.333333
v 2 1.041667 1.333333
v 0 1.041667 1.666667
v 2 1.041667 1.666667
v 0 1.25 1.666667
v 2 1.25 1.666667
v 0 1.25 2
v 2 1.25 2
v 0 1.458333 2
v 2 1.458333 2
v 0 1.458333 2.333333
v 2 1.458333 2.333333
v 0 1.666667 2.333333
v 2 1.666667 2.333333
v 0 1.666667 2.666667
v 2 1.666667 2.666667
v 0 1.875 2.666667
v 2 1.875 2.666667
v 0 1.875 3
v 2 1.875 3
v 0 2.083333 3
v 2 2.083333 3
v 0 2.083333 3.333333
v 2 2.083333 3.333333
v 0 2.291667 3.333333
v 2 2.291667 3.333333
v 0 2.291667 3.666667
v 2 2.291667 3.666667
v 0 2.5 3.666667
v 2 2.5 3.666667
v 0 2.5 4
v 2 2.5 4
v 2 0 0.3333333
v 2 0 0.6666667
v 2 0 1
v 2 0 1.333333
v 2 0 1.666667
v 2 0 2
v 2 0 2.333333
v 2 0 2.666667
v 2 0 3
v 2 0 3.333333
v 2 0 3.666667
v 2 0 4
v 0 0 0.3333333
v 0 0 0.6666667
v 0 0 1
v 0 0 1.333333
v 0 0 1.666667
v 0 0 2
v 0 0 2.333333
v 0 0 2.666667
v 0 0 3
v 0 0 3.333333
v 0 0 3.666667
v 0 0 4

vt 0 0
vt -2 0
vt 0 0.2083333
vt -2 0.2083333
vt 0 0.3333333
vt -2 0.3333333
vt 0 0.4166667
vt -2 0.4166667
vt 0 0.6666667
vt -2 0.6666667
vt 0 0.625
vt -2 0.625
vt 0 1
vt -2 1
vt 0 0.8333334
vt -2 0.8333334
vt 0 1.333333
vt -2 1.333333
vt 0 1.041667
vt -2 1.041667
vt 0 1.666667
vt -2 1.666667
vt 0 1.25
vt -2 1.25
vt 0 2
vt -2 2
vt 0 1.458333
vt -2 1.458333
vt 0 2.333333
vt -2 2.333333
vt 0 2.666667
vt -2 2.666667
vt 0 1.875
vt -2 1.875
vt 0 3
vt -2 3
vt 0 2.083333
vt -2 2.083333
vt 0 3.333333
vt -2 3.333333
vt 0 2.291667
vt -2 2.291667
vt 0 3.666667
vt -2 3.666667
vt 0 2.5
vt -2 2.5
vt 0 4
vt -2 4
vt -0.3333333 0
vt -0.3333333 0.2083333
vt -0.6666667 0
vt -0.6666667 0.4166667
vt -0.3333333 0.4166667
vt -1 0
vt -1 0.625
vt -0.6666667 0.625
vt -1.333333 0
vt -1.333333 0.8333333
vt -1 0.8333333
vt -1.666667 0
vt -1.666667 1.041667
vt -1.333333 1.041667
vt -1.666667 1.25
vt -2.333333 0
vt -2.333333 1.458333
vt -2.666667 0
vt -2.666667 1.666667
vt -2.333333 1.666667
vt -3 0
vt -3 1.875
vt -2.666667 1.875
vt -3.333333 0
vt -3.333333 2.083333
vt -3 2.083333
vt -3.666667 0
vt -3.666667 2.291667
vt -3.333333 2.291667
vt -4 0
vt -4 2.5
vt -3.666667 2.5
vt 0.3333333 0
vt 0.3333333 0.2083333
vt 0.6666667 0
vt 0.6666667 0.4166667
vt 0.3333333 0.4166667
vt 1 0
vt 1 0.625
vt 0.6666667 0.625
vt 1.333333 0
vt 1.333333 0.8333333
vt 1 0.8333333
vt 1.666667 0
vt 1.666667 1.041667
vt 1.333333 1.041667
vt 2 0
vt 2 1.25
vt 1.666667 1.25
vt 2.333333 0
vt 2.333333 1.458333
vt 2 1.458333
vt 2.666667 0
vt 2.666667 1.666667
vt 2.333333 1.666667
vt 3 0
vt 3 1.875
vt 2.666667 1.875
vt 3.333333 0
vt 3.333333 2.083333
vt 3 2.083333
vt 3.666667 0
vt 3.666667 2.291667
vt 3.333333 2.291667
vt 4 0
vt 4 2.5
vt 3.666667 2.5
vt 2 2.5

vn 0 0 -1
vn 0 1 0
vn 1 0 0
vn -1 0 0
vn 0 0 1

usemtl ProBuilderDefault
f 6/50/3 8/53/3 10/52/3
f 10/52/3 12/56/3 14/55/3
f 14/55/3 16/59/3 18/58/3
f 18/58/3 20/62/3 22/61/3
f 22/61/3 24/63/3 26/24/3
f 26/24/3 28/28/3 30/65/3
f 30/65/3 32/68/3 34/67/3
f 34/67/3 36/71/3 38/70/3
f 38/70/3 40/74/3 42/73/3
f 42/73/3 44/77/3 46/76/3
f 46/76/3 48/80/3 50/79/3
f 9/84/4 7/85/4 5/82/4
f 13/87/4 11/88/4 9/84/4
f 17/90/4 15/91/4 13/87/4
f 21/93/4 19/94/4 17/90/4
f 25/96/4 23/97/4 21/93/4
f 29/99/4 27/100/4 25/96/4
f 33/102/4 31/103/4 29/99/4
f 37/105/4 35/106/4 33/102/4
f 41/108/4 39/109/4 37/105/4
f 45/111/4 43/112/4 41/108/4
f 49/114/4 47/115/4 45/111/4
f 4/4/1 2/2/1 1/1/1
f 1/1/1 3/3/1 4/4/1
f 6/6/2 4/2/2 3/1/2
f 3/1/2 5/5/2 6/6/2
f 8/8/1 6/4/1 5/3/1
f 5/3/1 7/7/1 8/8/1
f 10/10/2 8/6/2 7/5/2
f 7/5/2 9/9/2 10/10/2
f 12/12/1 10/8/1 9/7/1
f 9/7/1 11/11/1 12/12/1
f 14/14/2 12/10/2 11/9/2
f 11/9/2 13/13/2 14/14/2
f 16/16/1 14/12/1 13/11/1
f 13/11/1 15/15/1 16/16/1
f 18/18/2 16/14/2 15/13/2
f 15/13/2 17/17/2 18/18/2
f 20/20/1 18/16/1 17/15/1
f 17/15/1 19/19/1 20/20/1
f 22/22/2 20/18/2 19/17/2
f 19/17/2 21/21/2 22/22/2
f 24/24/1 22/20/1 21/19/1
f 21/19/1 23/23/1 24/24/1
f 26/26/2 24/22/2 23/21/2
f 23/21/2 25/25/2 26/26/2
f 28/28/1 26/24/1 25/23/1
f 25/23/1 27/27/1 28/28/1
f 30/30/2 28/26/2 27/25/2
f 27/25/2 29/29/2 30/30/2
f 32/22/1 30/28/1 29/27/1
f 29/27/1 31/21/1 32/22/1
f 34/32/2 32/30/2 31/29/2
f 31/29/2 33/31/2 34/32/2
f 36/34/1 34/22/1 33/21/1
f 33/21/1 35/33/1 36/34/1
f 38/36/2 36/32/2 35/31/2
f 35/31/2 37/35/2 38/36/2
f 40/38/1 38/34/1 37/33/1
f 37/33/1 39/37/1 40/38/1
f 42/40/2 40/36/2 39/35/2
f 39/35/2 41/39/2 42/40/2
f 44/42/1 42/38/1 41/37/1
f 41/37/1 43/41/1 44/42/1
f 46/44/2 44/40/2 43/39/2
f 43/39/2 45/43/2 46/44/2
f 48/46/1 46/42/1 45/41/1
f 45/41/1 47/45/1 48/46/1
f 50/48/2 48/44/2 47/43/2
f 47/43/2 49/47/2 50/48/2
f 6/50/3 51/49/3 2/1/3
f 2/1/3 4/3/3 6/50/3
f 10/52/3 52/51/3 51/49/3
f 51/49/3 6/50/3 10/52/3
f 14/55/3 53/54/3 52/51/3
f 52/51/3 10/52/3 14/55/3
f 18/58/3 54/57/3 53/54/3
f 53/54/3 14/55/3 18/58/3
f 22/61/3 55/60/3 54/57/3
f 54/57/3 18/58/3 22/61/3
f 26/24/3 56/2/3 55/60/3
f 55/60/3 22/61/3 26/24/3
f 30/65/3 57/64/3 56/2/3
f 56/2/3 26/24/3 30/65/3
f 34/67/3 58/66/3 57/64/3
f 57/64/3 30/65/3 34/67/3
f 38/70/3 59/69/3 58/66/3
f 58/66/3 34/67/3 38/70/3
f 42/73/3 60/72/3 59/69/3
f 59/69/3 38/70/3 42/73/3
f 46/76/3 61/75/3 60/72/3
f 60/72/3 42/73/3 46/76/3
f 50/79/3 62/78/3 61/75/3
f 61/75/3 46/76/3 50/79/3
f 3/3/4 1/1/4 63/81/4
f 63/81/4 5/82/4 3/3/4
f 5/82/4 63/81/4 64/83/4
f 64/83/4 9/84/4 5/82/4
f 9/84/4 64/83/4 65/86/4
f 65/86/4 13/87/4 9/84/4
f 13/87/4 65/86/4 66/89/4
f 66/89/4 17/90/4 13/87/4
f 17/90/4 66/89/4 67/92/4
f 67/92/4 21/93/4 17/90/4
f 21/93/4 67/92/4 68/95/4
f 68/95/4 25/96/4 21/93/4
f 25/96/4 68/95/4 69/98/4
f 69/98/4 29/99/4 25/96/4
f 29/99/4 69/98/4 70/101/4
f 70/101/4 33/102/4 29/99/4
f 33/102/4 70/101/4 71/104/4
f 71/104/4 37/105/4 33/102/4
f 37/105/4 71/104/4 72/107/4
f 72/107/4 41/108/4 37/105/4
f 41/108/4 72/107/4 73/110/4
f 73/110/4 45/111/4 41/108/4
f 45/111/4 73/110/4 74/113/4
f 74/113/4 49/114/4 45/111/4
f 49/45/5 74/1/5 62/95/5
f 62/95/5 50/116/5 49/45/5

